<svg xmlns="http://www.w3.org/2000/svg" xmlns:xlink="http://www.w3.org/1999/xlink" width="200" zoomAndPan="magnify" viewBox="0 0 150 74.999997" height="100" preserveAspectRatio="xMidYMid meet" version="1.0"><defs><g/><clipPath id="e3b86c7f69"><path d="M 7.5 28.828125 L 45.75 28.828125 L 45.75 49.078125 L 7.5 49.078125 Z M 7.5 28.828125 " clip-rule="nonzero"/></clipPath></defs><g fill="#ffffff" fill-opacity="1"><g transform="translate(48.41683, 48.737017)"><g><path d="M 17.375 -17.4375 L 6.15625 -17.4375 L 6.15625 -11.890625 L 16.203125 -11.890625 L 16.203125 -8.78125 L 6.15625 -8.78125 L 6.15625 -3.109375 L 17.71875 -3.109375 L 17.71875 0 L 2.703125 0 L 2.703125 -20.546875 L 17.375 -20.546875 Z M 17.375 -17.4375 "/></g></g></g><g fill="#ffffff" fill-opacity="1"><g transform="translate(67.658684, 48.737017)"><g><path d="M 9.5625 0 L 6.078125 0 L 0.03125 -15.609375 L 3.546875 -15.609375 L 7.890625 -3.3125 L 12.171875 -15.609375 L 15.546875 -15.609375 Z M 9.5625 0 "/></g></g></g><g fill="#ffffff" fill-opacity="1"><g transform="translate(83.058036, 48.737017)"><g><path d="M 8.921875 -15.734375 C 11.597656 -15.734375 13.535156 -14.925781 14.734375 -13.3125 C 15.941406 -11.695312 16.441406 -9.429688 16.234375 -6.515625 L 4.4375 -6.515625 C 4.707031 -5.296875 5.269531 -4.335938 6.125 -3.640625 C 6.988281 -2.953125 8.035156 -2.609375 9.265625 -2.609375 C 11.023438 -2.609375 12.492188 -3.21875 13.671875 -4.4375 L 15.46875 -2.53125 C 13.863281 -0.757812 11.710938 0.125 9.015625 0.125 C 6.609375 0.125 4.675781 -0.601562 3.21875 -2.0625 C 1.757812 -3.519531 1.03125 -5.421875 1.03125 -7.765625 C 1.03125 -10.117188 1.757812 -12.03125 3.21875 -13.5 C 4.6875 -14.96875 6.585938 -15.710938 8.921875 -15.734375 Z M 4.375 -8.984375 L 13.296875 -8.984375 C 13.234375 -10.234375 12.8125 -11.21875 12.03125 -11.9375 C 11.25 -12.664062 10.222656 -13.03125 8.953125 -13.03125 C 7.710938 -13.03125 6.6875 -12.664062 5.875 -11.9375 C 5.070312 -11.21875 4.570312 -10.234375 4.375 -8.984375 Z M 4.375 -8.984375 "/></g></g></g><g fill="#ffffff" fill-opacity="1"><g transform="translate(100.30531, 48.737017)"><g><path d="M 11.625 -15.734375 C 13.4375 -15.734375 14.859375 -15.195312 15.890625 -14.125 C 16.921875 -13.0625 17.4375 -11.59375 17.4375 -9.71875 L 17.4375 0 L 14.0625 0 L 14.0625 -8.78125 C 14.0625 -9.945312 13.726562 -10.867188 13.0625 -11.546875 C 12.394531 -12.222656 11.472656 -12.5625 10.296875 -12.5625 C 9.046875 -12.539062 8.023438 -12.140625 7.234375 -11.359375 C 6.441406 -10.578125 5.988281 -9.554688 5.875 -8.296875 L 5.875 0 L 2.5 0 L 2.5 -15.609375 L 5.875 -15.609375 L 5.875 -12.625 C 6.925781 -14.695312 8.84375 -15.734375 11.625 -15.734375 Z M 11.625 -15.734375 "/></g></g></g><g fill="#ffffff" fill-opacity="1"><g transform="translate(119.752495, 48.737017)"><g><path d="M 10.46875 -3.578125 L 11.328125 -1 C 10.035156 -0.238281 8.753906 0.140625 7.484375 0.140625 C 6.210938 0.140625 5.164062 -0.238281 4.34375 -1 C 3.519531 -1.757812 3.109375 -2.894531 3.109375 -4.40625 L 3.109375 -12.5 L 0.90625 -12.5 L 0.90625 -15.03125 L 3.109375 -15.03125 L 3.109375 -19.3125 L 6.453125 -19.3125 L 6.453125 -15.03125 L 11.0625 -15.03125 L 11.0625 -12.5 L 6.453125 -12.5 L 6.453125 -5.015625 C 6.453125 -4.234375 6.585938 -3.6875 6.859375 -3.375 C 7.140625 -3.0625 7.5625 -2.90625 8.125 -2.90625 C 8.75 -2.90625 9.53125 -3.128906 10.46875 -3.578125 Z M 10.46875 -3.578125 "/></g></g></g><g fill="#ffffff" fill-opacity="1"><g transform="translate(131.690661, 48.737017)"><g><path d="M 7.15625 -15.75 C 9.3125 -15.75 11.132812 -15.222656 12.625 -14.171875 L 11.390625 -11.671875 C 9.898438 -12.597656 8.398438 -13.0625 6.890625 -13.0625 C 5.367188 -13.0625 4.609375 -12.539062 4.609375 -11.5 C 4.609375 -10.988281 4.890625 -10.566406 5.453125 -10.234375 C 6.023438 -9.898438 6.71875 -9.617188 7.53125 -9.390625 C 8.34375 -9.171875 9.15625 -8.910156 9.96875 -8.609375 C 10.78125 -8.304688 11.46875 -7.8125 12.03125 -7.125 C 12.59375 -6.445312 12.875 -5.578125 12.875 -4.515625 C 12.875 -3.015625 12.300781 -1.863281 11.15625 -1.0625 C 10.019531 -0.269531 8.597656 0.125 6.890625 0.125 C 5.722656 0.125 4.578125 -0.0664062 3.453125 -0.453125 C 2.328125 -0.835938 1.378906 -1.367188 0.609375 -2.046875 L 1.8125 -4.453125 C 2.476562 -3.867188 3.296875 -3.398438 4.265625 -3.046875 C 5.234375 -2.703125 6.160156 -2.53125 7.046875 -2.53125 C 7.804688 -2.53125 8.421875 -2.664062 8.890625 -2.9375 C 9.359375 -3.207031 9.59375 -3.628906 9.59375 -4.203125 C 9.59375 -4.785156 9.304688 -5.253906 8.734375 -5.609375 C 8.171875 -5.960938 7.488281 -6.242188 6.6875 -6.453125 C 5.882812 -6.671875 5.082031 -6.925781 4.28125 -7.21875 C 3.476562 -7.507812 2.796875 -7.992188 2.234375 -8.671875 C 1.679688 -9.347656 1.40625 -10.203125 1.40625 -11.234375 C 1.40625 -12.722656 1.957031 -13.847656 3.0625 -14.609375 C 4.164062 -15.367188 5.53125 -15.75 7.15625 -15.75 Z M 7.15625 -15.75 "/></g></g></g><g clip-path="url(#e3b86c7f69)"><path fill="#5e17eb" d="M 17.71875 28.828125 C 12.128906 28.828125 7.535156 33.378906 7.535156 38.953125 C 7.535156 44.523438 12.117188 49.078125 17.71875 49.078125 C 21.085938 49.078125 23.34375 47.488281 25.070312 45.324219 C 24.265625 44.09375 23.59375 42.820312 22.984375 41.628906 C 21.53125 43.9375 20.042969 45.28125 17.71875 45.28125 C 14.179688 45.28125 11.355469 42.46875 11.355469 38.953125 C 11.355469 35.4375 14.203125 32.625 17.71875 32.625 C 19.53125 32.625 20.601562 33.28125 21.734375 34.554688 C 22.863281 35.824219 23.871094 37.746094 24.910156 39.804688 C 25.949219 41.863281 27.027344 44.054688 28.644531 45.867188 C 30.261719 47.683594 32.601562 49.078125 35.53125 49.078125 C 41.085938 49.078125 45.714844 44.539062 45.714844 38.953125 C 45.714844 33.382812 41.132812 28.828125 35.53125 28.828125 C 32.160156 28.828125 29.902344 30.429688 28.179688 32.609375 C 28.980469 33.839844 29.652344 35.117188 30.261719 36.308594 C 31.71875 33.976562 33.207031 32.625 35.53125 32.625 C 39.070312 32.625 41.894531 35.433594 41.894531 38.953125 C 41.894531 42.453125 38.992188 45.28125 35.53125 45.28125 C 33.710938 45.28125 32.632812 44.617188 31.5 43.347656 C 30.367188 42.074219 29.359375 40.15625 28.320312 38.097656 C 27.28125 36.042969 26.207031 33.851562 24.59375 32.039062 C 22.980469 30.226562 20.640625 28.828125 17.71875 28.828125 Z M 17.71875 28.828125 " fill-opacity="1" fill-rule="nonzero"/></g></svg>