<svg xmlns="http://www.w3.org/2000/svg" xmlns:xlink="http://www.w3.org/1999/xlink" width="200" zoomAndPan="magnify" viewBox="0 0 150 74.999997" height="100" preserveAspectRatio="xMidYMid meet" version="1.0"><defs><clipPath id="60731c59af"><path d="M 18.660156 7.5 L 131.160156 7.5 L 131.160156 67.5 L 18.660156 67.5 Z M 18.660156 7.5 " clip-rule="nonzero"/></clipPath></defs><g clip-path="url(#60731c59af)"><path fill="#5e17eb" d="M 48.703125 7.5 C 32.265625 7.5 18.75 20.984375 18.75 37.5 C 18.75 54.003906 32.226562 67.5 48.703125 67.5 C 58.609375 67.5 65.253906 62.792969 70.335938 56.375 C 67.976562 52.738281 65.988281 48.964844 64.199219 45.433594 C 59.921875 52.277344 55.546875 56.25 48.703125 56.25 C 38.296875 56.25 29.980469 47.921875 29.980469 37.5 C 29.980469 27.09375 38.359375 18.75 48.703125 18.75 C 54.042969 18.75 57.191406 20.703125 60.519531 24.46875 C 63.847656 28.238281 66.804688 33.933594 69.867188 40.027344 C 72.925781 46.121094 76.09375 52.621094 80.851562 57.992188 C 85.605469 63.367188 92.496094 67.5 101.121094 67.5 C 117.457031 67.5 131.074219 54.054688 131.074219 37.5 C 131.074219 20.996094 117.597656 7.5 101.121094 7.5 C 91.199219 7.5 84.558594 12.246094 79.484375 18.707031 C 81.835938 22.355469 83.820312 26.132812 85.609375 29.671875 C 89.902344 22.757812 94.277344 18.75 101.121094 18.75 C 111.527344 18.75 119.839844 27.078125 119.839844 37.5 C 119.839844 47.871094 111.300781 56.25 101.121094 56.25 C 95.753906 56.25 92.585938 54.289062 89.253906 50.523438 C 85.917969 46.753906 82.957031 41.066406 79.898438 34.972656 C 76.839844 28.878906 73.683594 22.386719 68.9375 17.015625 C 64.191406 11.640625 57.308594 7.5 48.703125 7.5 Z M 48.703125 7.5 " fill-opacity="1" fill-rule="nonzero"/></g></svg>