<?xml version="1.0"?>
<svg xmlns="http://www.w3.org/2000/svg" xmlns:xlink="http://www.w3.org/1999/xlink" xmlns:svgjs="http://svgjs.com/svgjs" version="1.1" width="512" height="512" x="0" y="0" viewBox="0 0 512 512" style="enable-background:new 0 0 512 512" xml:space="preserve"><g><path d="m470 52h-12v-20.050781c0-17.617188-14.332031-31.949219-31.949219-31.949219-17.613281 0-31.945312 14.332031-31.945312 31.949219v20.050781h-106.03125v-20.050781c0-17.617188-14.332031-31.949219-31.945313-31.949219-17.617187 0-31.949218 14.332031-31.949218 31.949219v20.050781h-106.285157v-20.050781c0-17.617188-14.332031-31.949219-31.945312-31.949219-17.617188 0-31.949219 14.332031-31.949219 31.949219v20.050781h-12c-23.160156 0-42 18.839844-42 42v376c0 23.160156 18.839844 42 42 42h428c23.160156 0 42-18.839844 42-42v-376c0-23.160156-18.839844-42-42-42zm-55.894531-20.050781c0-6.589844 5.359375-11.949219 11.945312-11.949219 6.589844 0 11.949219 5.359375 11.949219 11.949219v56.101562c0 6.589844-5.359375 11.949219-11.949219 11.949219-6.585937 0-11.945312-5.359375-11.945312-11.949219zm-169.925781 0c0-6.589844 5.359374-11.949219 11.949218-11.949219 6.585938 0 11.945313 5.359375 11.945313 11.949219v56.101562c0 6.589844-5.359375 11.949219-11.945313 11.949219-6.589844 0-11.949218-5.359375-11.949218-11.949219zm-170.179688 0c0-6.589844 5.359375-11.949219 11.949219-11.949219 6.585937 0 11.945312 5.359375 11.945312 11.949219v56.101562c0 6.589844-5.359375 11.949219-11.945312 11.949219-6.589844 0-11.949219-5.359375-11.949219-11.949219zm-32 40.050781h12v16.050781c0 17.617188 14.332031 31.949219 31.949219 31.949219 17.613281 0 31.945312-14.332031 31.945312-31.949219v-16.050781h106.285157v16.050781c0 17.617188 14.332031 31.949219 31.949218 31.949219 17.613282 0 31.945313-14.332031 31.945313-31.949219v-16.050781h106.03125v16.050781c0 17.617188 14.332031 31.949219 31.945312 31.949219 17.617188 0 31.949219-14.332031 31.949219-31.949219v-16.050781h12c12.132812 0 22 9.867188 22 22v78h-191c-5.523438 0-10 4.476562-10 10s4.476562 10 10 10h191v238c0 12.132812-9.867188 22-22 22h-428c-12.132812 0-22-9.867188-22-22v-238h191c5.523438 0 10-4.476562 10-10s-4.476562-10-10-10h-191v-78c0-12.132812 9.867188-22 22-22zm428 420h-428c-12.132812 0-22-9.867188-22-22v-4.242188c6.402344 3.953126 13.9375 6.242188 22 6.242188h428c8.0625 0 15.597656-2.289062 22-6.242188v4.242188c0 12.132812-9.867188 22-22 22zm0 0" fill="#6505b6" data-original="#000000"/><path d="m256 192c2.628906 0 5.210938-1.070312 7.070312-2.929688 1.859376-1.859374 2.929688-4.441406 2.929688-7.070312s-1.070312-5.210938-2.929688-7.070312c-1.859374-1.859376-4.441406-2.929688-7.070312-2.929688s-5.210938 1.070312-7.070312 2.929688c-1.859376 1.859374-2.929688 4.441406-2.929688 7.070312s1.070312 5.210938 2.929688 7.070312c1.859374 1.859376 4.441406 2.929688 7.070312 2.929688zm0 0" fill="#6505b6" data-original="#000000"/><path d="m179.964844 279.082031c-8.710938 1.265625-15.8125 7.253907-18.53125 15.625-2.71875 8.371094-.496094 17.386719 5.808594 23.53125l27.75 27.046875-6.550782 38.191406c-1.488281 8.675782 2.007813 17.277344 9.128906 22.453126 7.121094 5.171874 16.386719 5.84375 24.175782 1.746093l34.300781-18.03125 34.296875 18.03125c3.390625 1.78125 7.054688 2.664063 10.703125 2.664063 4.742187 0 9.449219-1.488282 13.472656-4.410156 7.121094-5.175782 10.621094-13.777344 9.132813-22.453126l-6.550782-38.191406 27.75-27.046875c6.300782-6.144531 8.527344-15.160156 5.808594-23.53125-2.722656-8.371093-9.820312-14.359375-18.53125-15.625l-38.347656-5.570312-17.148438-34.75c-3.898437-7.890625-11.785156-12.792969-20.585937-12.792969s-16.6875 4.902344-20.582031 12.792969l-17.152344 34.75zm53.953125 7.996094 19.476562-39.464844c.671875-1.359375 1.8125-1.644531 2.648438-1.644531.839843 0 1.980469.285156 2.652343 1.644531l19.476563 39.464844c1.457031 2.949219 4.269531 4.996094 7.527344 5.46875l43.550781 6.328125c1.5.21875 2.125 1.214844 2.386719 2.011719.257812.796875.335937 1.96875-.75 3.027343l-31.511719 30.71875c-2.359375 2.300782-3.433594 5.609376-2.878906 8.851563l7.441406 43.375c.253906 1.496094-.5 2.398437-1.175781 2.890625-.679688.492188-1.769531.933594-3.113281.226562l-38.953126-20.480468c-1.457031-.765625-3.054687-1.148438-4.652343-1.148438-1.597657 0-3.195313.382813-4.652344 1.148438l-38.953125 20.480468c-1.34375.707032-2.433594.265626-3.113281-.226562-.675781-.492188-1.429688-1.394531-1.175781-2.890625l7.441406-43.375c.554687-3.242187-.519532-6.550781-2.875-8.851563l-31.515625-30.71875c-1.085938-1.058593-1.007813-2.230468-.746094-3.027343.257813-.796875.882813-1.792969 2.382813-2.011719l43.550781-6.328125c3.257812-.472656 6.074219-2.519531 7.53125-5.46875zm0 0" fill="#6505b6" data-original="#000000"/></g></svg>
